<svg width="102" height="50" viewBox="0 0 102 50" fill="none" xmlns="http://www.w3.org/2000/svg">
<path d="M4.36108 32.8992V13.4004C4.36108 7.02888 9.52626 1.86394 15.8976 1.86394H27.4288C29.0298 1.86394 30.6213 2.10539 32.1503 2.58051C33.6083 3.03345 35.1244 3.27443 36.6515 3.2955L62.6355 3.65561C64.9768 3.68809 67.3164 3.53854 69.6344 3.2077L69.8914 3.17136C69.4916 2.22427 68.8219 0.627398 68.7751 0.439679C68.7722 0.428206 68.7704 0.416557 68.7704 0.404674C68.7704 0.137817 69.4816 -0.21567 70.2543 0.170773C70.9116 0.499326 72.1484 2.17668 72.5845 2.78743L75.8917 2.3157C78.003 2.01483 80.1325 1.86394 82.2649 1.86394H86.8019C95.0423 1.86394 101.722 8.54368 101.722 16.7833V29.5166C101.722 37.7564 95.0423 44.4363 86.8019 44.4363H82.2649C80.1325 44.4363 78.003 44.2847 75.8917 43.9839L72.5845 43.5127C72.1484 44.1232 70.9116 45.8008 70.2543 46.1291C69.4816 46.5155 68.7704 46.1619 68.7704 45.8956C68.7704 45.8833 68.7722 45.8716 68.7751 45.8605C68.8219 45.672 69.4916 44.0752 69.8914 43.1287L69.6344 43.0918C67.3164 42.7617 64.9768 42.6118 62.6355 42.644L36.6515 43.004C35.1244 43.0251 33.6083 43.2662 32.1503 43.7193C30.6213 44.1946 29.0298 44.4363 27.4288 44.4363H15.8976C9.52626 44.4363 4.36108 39.2707 4.36108 32.8992Z" fill="#AEC2BB"/>
<path d="M71.5318 5.8696C73.6425 5.56844 75.7726 5.41754 77.9044 5.41754H82.4414C90.6813 5.41754 97.3612 12.0973 97.3612 20.3371V26.7036V33.0702C97.3612 41.3098 90.6813 47.9898 82.4414 47.9898H77.9044C75.7726 47.9898 73.6425 47.8387 71.5318 47.5379L65.2739 46.6458C62.9559 46.3151 60.6163 46.1653 58.275 46.198L32.291 46.558C30.7639 46.5791 29.2478 46.8197 27.7898 47.2733C26.2608 47.748 24.6693 47.9898 23.0684 47.9898H11.5365C5.16564 47.9898 0 42.8247 0 36.4533L0 26.7036L0 16.9543C0 10.5827 5.16564 5.41754 11.5365 5.41754H23.0684C24.6693 5.41754 26.2608 5.65899 27.7898 6.13411C29.2478 6.58729 30.7639 6.8281 32.291 6.84911L58.275 7.20921C60.6163 7.24193 62.9559 7.09214 65.2739 6.76178L71.5318 5.8696Z" fill="#E5E0E9"/>
<path d="M70.2446 46.3648C72.2371 46.6487 74.2466 46.7915 76.259 46.7915H80.5402C88.3165 46.7915 94.62 40.488 94.62 32.7116V26.7036V20.6956C94.62 12.9197 88.3165 6.61603 80.5402 6.61603H76.259C74.2466 6.61603 72.2371 6.7585 70.2446 7.04268L64.3397 7.88458C62.1523 8.19645 59.9443 8.33758 57.7347 8.30691L33.2135 7.96712C31.773 7.94727 30.3418 7.71998 28.9663 7.29239C27.5234 6.84402 26.0214 6.61603 24.5107 6.61603H13.6286C7.61536 6.61603 2.74127 11.4904 2.74127 17.503L2.74127 26.7036V35.9041C2.74127 41.9168 7.61536 46.7915 13.6286 46.7915H24.5107C26.0214 46.7915 27.5234 46.5632 28.9663 46.1149C30.3418 45.687 31.773 45.4599 33.2135 45.4399L57.7347 45.0999C59.9443 45.0694 62.1523 45.2105 64.3397 45.5225L70.2446 46.3648Z" fill="#FDFEFD"/>
<path d="M68.3814 6.56414C68.3814 6.56414 66.7009 4.12789 65.8937 3.72429C65.0871 3.32094 64.3473 3.72429 64.414 3.9932C64.4819 4.26228 65.8264 7.42248 65.8264 7.42248L68.3814 6.56414Z" fill="#E5E0E9"/>
<path d="M68.3814 46.843C68.3814 46.843 66.7009 49.2792 65.8937 49.6831C65.0871 50.0864 64.3473 49.6831 64.414 49.4138C64.4819 49.1451 65.8264 45.9849 65.8264 45.9849L68.3814 46.843Z" fill="#E5E0E9"/>
<path d="M94.2741 16.4919C94.6393 16.6433 95.0368 16.6833 95.4272 16.6337C94.3355 13.9166 92.4285 11.6171 90.0063 10.0369C90.8405 11.0304 91.5335 12.1421 92.0486 13.3327C92.5748 14.5479 93.0501 15.9845 94.2741 16.4919Z" fill="#6C9ED1"/>
<path d="M94.2741 36.9156C94.6393 36.764 95.0368 36.7242 95.4272 36.7739C94.3355 39.4905 92.4285 41.7903 90.0063 43.3702C90.8405 42.3768 91.5335 41.2653 92.0486 40.0747C92.5748 38.8589 93.0501 37.4225 94.2741 36.9156Z" fill="#6C9ED1"/>
<path d="M43.8158 12.0922C48.913 12.0291 53.5828 11.9029 55.299 11.9029C60.4424 11.9029 65.2844 8.07025 65.2844 8.07025H45.3377C44.7705 9.38569 44.2969 10.7406 43.8158 12.0922Z" fill="#3F4045"/>
<path d="M31.1385 11.9845C34.3737 12.1446 38.8316 12.1475 43.0812 12.1007C43.4564 10.7432 43.8644 9.39623 44.3415 8.07025H29.2127C29.8045 9.40009 30.4419 10.7082 31.1385 11.9845Z" fill="#3F4045"/>
<path d="M28.1047 8.07025H22.8232C22.8232 8.07025 22.9244 11.3987 29.7823 11.9029C29.969 11.9166 30.1645 11.9294 30.3641 11.9415C29.571 10.6716 28.7574 9.41355 28.1047 8.07025Z" fill="#3F4045"/>
<path d="M43.8158 41.315C48.913 41.3782 53.5828 41.5041 55.299 41.5041C60.4424 41.5041 65.2844 45.3369 65.2844 45.3369H45.3377C44.7705 44.0216 44.2969 42.6666 43.8158 41.315Z" fill="#3F4045"/>
<path d="M31.1385 41.4227C34.3737 41.2623 38.8316 41.2594 43.0812 41.3062C43.4564 42.6637 43.8644 44.0111 44.3415 45.3369H29.2127C29.8045 44.007 30.4419 42.6988 31.1385 41.4227Z" fill="#3F4045"/>
<path d="M28.1047 45.3369H22.8232C22.8232 45.3369 22.9244 42.0086 29.7823 41.5041C29.969 41.4906 30.1645 41.4777 30.3641 41.4655C29.571 42.7356 28.7574 43.9935 28.1047 45.3369Z" fill="#3F4045"/>
<path d="M26.756 39.5877C26.756 39.5877 24.033 34.1926 24.033 26.7036C24.033 19.2149 26.756 13.8192 26.756 13.8192C23.7357 12.7653 19.6875 12.3588 17.5088 12.2088C16.5418 12.1423 15.6297 12.6627 15.1997 13.5318C14.0816 15.7917 12.1323 20.6073 12.1323 26.7036C12.1323 32.8001 14.0816 37.6151 15.1997 39.8757C15.6297 40.7443 16.5418 41.2647 17.5088 41.198C19.6875 41.0487 23.7357 40.6419 26.756 39.5877ZM68.6343 43.2707C66.9819 43.0412 63.67 42.2814 60.2868 39.7709C59.8167 39.4221 59.568 38.8496 59.6183 38.2666C59.784 36.3297 60.1404 31.5983 60.1404 26.7036C60.1404 21.8086 59.784 17.0774 59.6183 15.1405C59.568 14.5575 59.8167 13.985 60.2868 13.6365C63.67 11.1257 66.9819 10.3661 68.6343 10.1361C69.3373 10.0385 70.0304 10.3757 70.3705 10.9979C71.3134 12.7224 72.9489 17.0989 72.9489 26.7036C72.9489 36.308 71.3134 40.6846 70.3705 42.4096C70.0304 43.0319 69.3373 43.3684 68.6343 43.2707Z" fill="#3F4045"/>
<path d="M2.75364 12.7927C3.14096 11.5155 3.83172 10.3313 4.75316 9.36528C4.99304 9.11352 5.25299 8.86937 5.40342 8.55587C5.50703 8.33935 5.54203 8.07776 5.47823 7.85211C3.62685 9.20595 2.33863 11.2807 2.02307 13.6637L2.04754 13.6662C2.44862 13.6534 2.63587 13.1771 2.75364 12.7927Z" fill="#EF3725"/>
<path d="M2.75364 40.6144C3.14096 41.8916 3.83172 43.0757 4.75316 44.0421C4.99304 44.2938 5.25299 44.5373 5.40342 44.8511C5.50703 45.0676 5.54203 45.3293 5.47823 45.5552C3.62685 44.2013 2.33863 42.1263 2.02307 39.7434L2.04754 39.741C2.44862 39.7539 2.63587 40.2298 2.75364 40.6144Z" fill="#EF3725"/>
</svg>
