<svg width="102" height="52" viewBox="0 0 102 52" fill="none" xmlns="http://www.w3.org/2000/svg">
<path d="M102 13.4006V32.8994C102 39.2709 96.8348 44.4359 90.4635 44.4359H78.9323C77.3313 44.4359 75.7397 44.1944 74.2108 43.7193C72.7527 43.2664 71.2367 43.0254 69.7095 43.0043L43.7256 42.6442C41.3843 42.6117 39.0446 42.7613 36.7267 43.0921L36.4697 43.1284C36.8695 44.0755 37.5392 45.6724 37.586 45.8601C37.5889 45.8716 37.5907 45.8832 37.5907 45.8951C37.5907 46.162 36.8795 46.5155 36.1068 46.129C35.4495 45.8005 34.2126 44.1231 33.7766 43.5124L30.4694 43.9841C28.3581 44.285 26.2286 44.4359 24.0962 44.4359H19.5592C11.3188 44.4359 4.63942 37.7561 4.63942 29.5165V16.7833C4.63942 8.54339 11.3188 1.86347 19.5592 1.86347H24.0962C26.2286 1.86347 28.3581 2.01508 30.4694 2.31594L33.7766 2.78714C34.2126 2.17663 35.4495 0.499039 36.1068 0.170662C36.8795 -0.215664 37.5907 0.137882 37.5907 0.404213C37.5907 0.416505 37.5889 0.42821 37.586 0.439332C37.5392 0.627812 36.8695 2.22463 36.4697 3.17113L36.7267 3.208C39.0446 3.53814 41.3843 3.68798 43.7256 3.65579L69.7095 3.2958C71.2367 3.27473 72.7527 3.03357 74.2108 2.58052C75.7397 2.10522 77.3313 1.86347 78.9323 1.86347H90.4635C96.8348 1.86347 102 7.02912 102 13.4006" fill="#AEC2BB"/>
<path d="M25.8294 49.4302C23.7186 49.7314 21.5886 49.8823 19.4568 49.8823H14.9198C6.67992 49.8823 7.72488e-06 43.2025 7.72488e-06 34.9627V28.5962V22.2296C7.72488e-06 13.99 6.67992 7.31004 14.9198 7.31004H19.4568C21.5886 7.31004 23.7186 7.46105 25.8294 7.76192L32.0873 8.65398C34.4052 8.9847 36.7449 9.13455 39.0862 9.10177L65.0701 8.74178C66.5973 8.72071 68.1133 8.48014 69.5714 8.0265C71.1003 7.55178 72.6919 7.31004 74.2928 7.31004H85.8247C92.1955 7.31004 97.3612 12.4751 97.3612 18.8465V28.5962V38.3455C97.3612 44.7171 92.1955 49.8823 85.8247 49.8823H74.2928C72.6919 49.8823 71.1003 49.6408 69.5714 49.1657C68.1133 48.7125 66.5973 48.4717 65.0701 48.4507L39.0862 48.0906C36.7449 48.0579 34.4052 48.2077 32.0873 48.538L25.8294 49.4302" fill="#E5E0E9"/>
<path d="M27.1166 8.93501C25.1241 8.65112 23.1146 8.50829 21.1022 8.50829H16.821C9.04475 8.50829 2.74119 14.8118 2.74119 22.5882V28.5962V34.6042C2.74119 42.3801 9.04475 48.6838 16.821 48.6838H21.1022C23.1146 48.6838 25.1241 48.5413 27.1166 48.2571L33.0215 47.4152C35.2089 47.1034 37.4169 46.9622 39.6265 46.9929L64.1477 47.3327C65.5882 47.3525 67.0194 47.5798 68.3949 48.0074C69.8378 48.4558 71.3398 48.6838 72.8505 48.6838H83.7326C89.7458 48.6838 94.6199 43.8094 94.6199 37.7968V28.5962V19.3957C94.6199 13.383 89.7458 8.50829 83.7326 8.50829H72.8505C71.3398 8.50829 69.8378 8.73658 68.3949 9.18495C67.0194 9.61284 65.5882 9.83995 64.1477 9.85985L39.6265 10.1999C37.4169 10.2304 35.2089 10.0893 33.0215 9.77732L27.1166 8.93501" fill="#FDFDFE"/>
<path d="M28.9797 48.7357C28.9797 48.7357 30.6602 51.1719 31.4674 51.5755C32.274 51.9789 33.0139 51.5755 32.9472 51.3066C32.8793 51.0375 31.5347 47.8773 31.5347 47.8773L28.9797 48.7357" fill="#E5E0E9"/>
<path d="M28.9797 8.45683C28.9797 8.45683 30.6602 6.02064 31.4674 5.61675C32.274 5.21345 33.0139 5.61675 32.9472 5.88601C32.8793 6.15468 31.5347 9.31494 31.5347 9.31494L28.9797 8.45683" fill="#E5E0E9"/>
<path d="M3.08713 38.8079C2.72188 38.6565 2.32444 38.6165 1.93401 38.6661C3.02568 41.3832 4.93271 43.6827 7.35486 45.2629C6.52075 44.2694 5.82771 43.1577 5.31261 41.9671C4.78638 40.7519 4.31108 39.3153 3.08713 38.8079" fill="#6C9ED1"/>
<path d="M3.08713 18.3842C2.72188 18.5358 2.32444 18.5756 1.93401 18.5259C3.02568 15.8093 4.93271 13.5095 7.35486 11.9296C6.52075 12.923 5.82771 14.0345 5.31261 15.2251C4.78638 16.4409 4.31108 17.8773 3.08713 18.3842" fill="#6C9ED1"/>
<path d="M53.5454 43.2076C48.4483 43.2707 43.7784 43.3969 42.0622 43.3969C36.9188 43.3969 32.0768 47.2296 32.0768 47.2296H52.0235C52.5907 45.9141 53.0643 44.5592 53.5454 43.2076Z" fill="#3F4045"/>
<path d="M66.2227 43.3153C62.9875 43.1552 58.5295 43.1523 54.2799 43.1991C53.9047 44.5566 53.4967 45.9036 53.0197 47.2296H68.1484C67.5567 45.8997 66.9192 44.5916 66.2227 43.3153Z" fill="#3F4045"/>
<path d="M69.2565 47.2296H74.538C74.538 47.2296 74.4368 43.9011 67.5789 43.3969C67.3922 43.3832 67.1967 43.3704 66.9971 43.3583C67.7902 44.6282 68.6038 45.8863 69.2565 47.2296" fill="#3F4045"/>
<path d="M53.5454 13.9848C48.4483 13.9216 43.7784 13.7957 42.0622 13.7957C36.9188 13.7957 32.0768 9.96292 32.0768 9.96292L52.0235 9.96292C52.5907 11.2782 53.0643 12.6332 53.5454 13.9848Z" fill="#3F4045"/>
<path d="M66.2227 13.8771C62.9875 14.0375 58.5295 14.0404 54.2799 13.9936C53.9047 12.6361 53.4967 11.2887 53.0197 9.96289L68.1484 9.96289C67.5567 11.2928 66.9192 12.601 66.2227 13.8771Z" fill="#3F4045"/>
<path d="M69.2565 9.9629H74.538C74.538 9.9629 74.4368 13.2912 67.5789 13.7957C67.3922 13.8092 67.1967 13.8221 66.9971 13.8344C67.7902 12.5642 68.6038 11.3063 69.2565 9.9629" fill="#3F4045"/>
<path d="M70.6052 15.7121C70.6052 15.7121 73.3282 21.1072 73.3282 28.5962C73.3282 36.0849 70.6052 41.4806 70.6052 41.4806C73.6255 42.5345 77.6738 42.941 79.8524 43.091C80.8194 43.1575 81.7315 42.6371 82.1615 41.768C83.2796 39.5081 85.2289 34.6925 85.2289 28.5962C85.2289 22.4997 83.2796 17.6847 82.1615 15.4241C81.7315 14.5555 80.8194 14.0351 79.8524 14.1018C77.6738 14.2511 73.6255 14.6579 70.6052 15.7121V15.7121ZM28.7269 12.0291C30.3793 12.2586 33.6912 13.0184 37.0744 15.5289C37.5445 15.8778 37.7932 16.4502 37.7429 17.0332C37.5772 18.9701 37.2208 23.7016 37.2208 28.5962C37.2208 33.4912 37.5772 38.2224 37.7429 40.1593C37.7932 40.7423 37.5445 41.3148 37.0744 41.6633C33.6912 44.1741 30.3793 44.9337 28.7269 45.1637C28.0239 45.2613 27.3308 44.9241 26.9907 44.3019C26.0478 42.5774 24.4123 38.2009 24.4123 28.5962C24.4123 18.9918 26.0478 14.6152 26.9907 12.8902C27.3308 12.268 28.0239 11.9314 28.7269 12.0291" fill="#3F4045"/>
<path d="M94.6075 42.5071C94.2202 43.7843 93.5295 44.9685 92.608 45.9345C92.3681 46.1863 92.1082 46.4304 91.9578 46.7439C91.8541 46.9605 91.8191 47.222 91.8829 47.4477C93.7343 46.0939 95.0225 44.0191 95.3381 41.6361L95.3136 41.6336C94.9126 41.6464 94.7253 42.1227 94.6075 42.5071Z" fill="#EF3725"/>
<path d="M94.6075 14.6854C94.2202 13.4082 93.5295 12.2241 92.608 11.2577C92.3681 11.006 92.1082 10.7625 91.9578 10.4487C91.8541 10.2322 91.8191 9.97051 91.8829 9.74457C93.7343 11.0985 95.0225 13.1735 95.3381 15.5564L95.3136 15.5588C94.9126 15.5459 94.7253 15.07 94.6075 14.6854Z" fill="#EF3725"/>
</svg>
